PathFileType	4	(X/Y/Z)	C:/Users/opensim2020/Desktop/walking_exp_matlab/subject01_walking07_straight_03.trc	
DataRate	CameraRate	NumFrames	NumMarkers	Units	OrigDataRate	OrigDataStartFrame	OrigNumFrames	
100.00	100.00	5	43	mm	100.00	2036	220	
Frame#	Time	LFHD			RFHD			LBHD			RBHD			C7			T10			CLAV			STRN			RBAK			LSHO			LUPA			LELB			LFRM			LWRA			LWRB			LFIN			RSHO			RUPA			RELB			RFRM			RWRA			RWRB			RFIN			LASI			RASI			LPSI			RPSI			LTHI			LKNE			LTIB			LANK			LHEE			LTOE			RTHI			RKNE			RTIB			RANK			RHEE			RTOE			*39			*40			*41			*42			
		X1	Y1	Z1	X2	Y2	Z2	X3	Y3	Z3	X4	Y4	Z4	X5	Y5	Z5	X6	Y6	Z6	X7	Y7	Z7	X8	Y8	Z8	X9	Y9	Z9	X10	Y10	Z10	X11	Y11	Z11	X12	Y12	Z12	X13	Y13	Z13	X14	Y14	Z14	X15	Y15	Z15	X16	Y16	Z16	X17	Y17	Z17	X18	Y18	Z18	X19	Y19	Z19	X20	Y20	Z20	X21	Y21	Z21	X22	Y22	Z22	X23	Y23	Z23	X24	Y24	Z24	X25	Y25	Z25	X26	Y26	Z26	X27	Y27	Z27	X28	Y28	Z28	X29	Y29	Z29	X30	Y30	Z30	X31	Y31	Z31	X32	Y32	Z32	X33	Y33	Z33	X34	Y34	Z34	X35	Y35	Z35	X36	Y36	Z36	X37	Y37	Z37	X38	Y38	Z38	X39	Y39	Z39	X40	Y40	Z40	X41	Y41	Z41	X42	Y42	Z42	X43	Y43	Z43	

1	0.000	1458.17175	-971.40643	1658.11438	1561.32825	-922.20282	1664.41016	1501.46936	-1072.99792	1599.01074	1611.75659	-1023.92316	1604.18469	1512.88464	-1086.80273	1415.36877	1507.30078	-1132.92065	1125.71008	1508.73694	-943.30511	1346.76941	1504.69861	-906.97040	1189.29150	1586.74683	-1148.00415	1225.55493	1349.42285	-1002.10266	1381.49451	1257.70593	-1059.59229	1207.20728	1248.59741	-1104.11182	1067.83691	1214.80359	-1101.63391	957.38947	1225.09485	-1071.07837	819.65558	1196.91760	-1121.61047	837.42462	1185.71863	-1101.55823	754.23474	1661.00415	-1004.45667	1373.52881	1767.64026	-1036.14343	1174.30566	1781.95374	-1010.22253	1052.12305	1822.41309	-954.01630	949.31476	1822.07605	-842.23523	861.65662	1853.32043	-889.72858	849.95264	1866.30200	-832.23907	789.83954	1406.83240	-957.46436	920.84540	1624.50098	-980.81342	911.97882	1436.24316	-1146.79419	930.86877	1578.62927	-1162.27698	937.16986	1343.00720	-915.76666	599.58282	1364.79968	-895.75732	468.97159	1355.49707	-893.39783	281.19534	1409.13147	-843.97626	65.35856	1465.97400	-876.97620	27.57019	1404.17468	-695.40228	64.76932	1675.46204	-1114.16650	597.10083	1658.78064	-1147.72241	440.21259	1651.47681	-1252.22241	295.78308	1606.13062	-1323.76770	98.17476	1545.08191	-1363.67102	69.36277	1645.39294	-1202.75073	28.51222	1545.91980	-944.80426	1696.43542	-3101.96899	1973.13110	1023.41486	-3140.57422	2012.65063	1022.08612			 
2	0.010	1456.30359	-963.39471	1657.58826	1559.51941	-914.14203	1663.94104	1499.76465	-1064.98376	1598.64001	1609.96167	-1015.92621	1603.84192	1511.62122	-1078.97754	1414.79358	1506.37854	-1124.08618	1124.75574	1506.76501	-935.12140	1346.23779	1502.76721	-898.32385	1188.90515	1585.74878	-1139.18604	1224.68689	1347.58948	-994.51587	1380.71277	1256.69421	-1052.02795	1205.96973	1248.26184	-1096.13538	1066.45422	1214.88892	-1093.14124	955.81787	1225.37988	-1061.79211	818.25946	1197.43091	-1112.58923	835.70007	1186.58337	-1092.25439	752.65051	1659.32825	-995.58276	1372.89868	1765.85632	-1027.31177	1173.78967	1779.97327	-1002.03009	1051.38623	1820.04834	-945.63110	948.27026	1818.68579	-833.95496	860.53302	1850.43787	-881.14850	848.92700	1862.67029	-823.66901	788.55597	1405.67786	-948.47888	919.97485	1623.56897	-971.38696	911.48395	1435.20850	-1137.73792	930.06689	1577.53333	-1152.66235	936.39777	1343.67004	-905.66949	598.95673	1365.13550	-886.40454	468.23206	1356.12561	-887.67444	279.79907	1410.91492	-842.54407	64.18446	1467.15308	-875.81787	28.01525	1404.80774	-693.16870	58.97592	1675.45032	-1105.58215	596.91742	1659.05762	-1139.99866	440.08759	1651.69116	-1246.76355	297.29141	1606.72070	-1321.80371	100.86666	1545.67725	-1362.37854	73.21322	1645.36963	-1202.39832	28.49146	1543.99060	-936.73120	1695.96191	-3102.09058	1973.01282	1023.28192	-3140.52637	2012.52161	1021.98291			 
3	0.020	1454.31836	-955.28168	1657.44446	1557.57178	-906.07349	1663.84851	1497.79834	-1056.96631	1598.50574	1608.05884	-1007.91217	1603.78540	1509.89209	-1070.86719	1413.99829	1505.28174	-1115.11328	1124.06238	1504.74463	-926.78693	1345.93396	1500.72180	-889.54901	1188.90295	1584.44763	-1130.31116	1223.96570	1345.81567	-987.21704	1380.20544	1255.56409	-1044.22778	1204.85474	1248.04883	-1087.61389	1065.18213	1214.92676	-1084.23730	954.20538	1225.80579	-1052.11902	816.92395	1198.00208	-1103.11438	833.91260	1187.43909	-1082.24902	750.90417	1657.52222	-986.72095	1372.53479	1764.03064	-1018.56860	1173.39221	1777.96790	-994.13031	1050.73193	1817.61987	-937.49957	947.29291	1815.07776	-825.97998	859.41461	1847.45105	-872.86359	847.86438	1858.80664	-815.36951	787.37823	1404.78247	-938.89697	919.74738	1622.63110	-961.82422	911.12103	1433.83386	-1128.52002	929.29315	1576.51306	-1143.48401	936.22388	1344.44238	-896.43292	598.39423	1365.30078	-877.43463	467.61420	1357.26697	-881.72815	278.74655	1411.56775	-838.85339	64.68610	1467.58838	-873.40753	29.41883	1404.59119	-689.94196	54.77045	1675.31189	-1096.70667	596.69379	1659.38184	-1132.00488	439.97366	1651.94983	-1241.15808	299.11856	1607.46497	-1319.65955	104.10542	1546.46997	-1360.91272	77.42881	1645.35742	-1202.01038	28.56866	1542.13049	-928.64740	1695.66846	-3101.99683	1973.24951	1023.22388	-3140.72681	2012.52063	1021.96478			 
4	0.030	1452.34644	-947.21155	1657.77698	1555.59473	-897.93262	1664.14307	1495.77637	-1048.80444	1598.76831	1606.02917	-999.79584	1604.06250	1508.15967	-1062.72437	1413.85779	1504.20691	-1106.16833	1123.76587	1502.62366	-918.51080	1345.97754	1498.61719	-880.81384	1189.13855	1582.80029	-1121.41626	1223.42456	1343.80627	-979.61487	1379.78687	1254.24170	-1035.98511	1203.79175	1247.45972	-1078.96777	1063.46558	1214.86646	-1074.96533	952.56628	1226.33716	-1042.03979	815.53204	1198.57715	-1093.11133	832.17999	1188.29419	-1071.64136	749.40149	1655.67822	-978.04114	1372.35400	1762.10999	-1009.85938	1173.05420	1775.66431	-986.44196	1050.36743	1815.05969	-929.61267	946.46503	1811.21582	-818.33911	858.24585	1844.33789	-864.80231	846.96515	1854.68799	-807.35291	786.22321	1403.54504	-929.69153	919.15521	1621.46326	-952.10919	910.81543	1432.25964	-1119.10901	928.69421	1575.12683	-1133.61890	935.25824	1344.45300	-887.67950	598.54388	1364.90759	-869.27917	467.48883	1358.38599	-874.89081	278.62140	1411.25403	-834.24109	64.69847	1467.09436	-870.98889	30.81626	1404.61255	-686.61957	51.43700	1674.99304	-1087.31226	596.54584	1659.58667	-1123.12524	439.76654	1652.19983	-1234.88831	301.01529	1608.43811	-1317.01672	107.61131	1547.39282	-1358.87732	82.28770	1645.41650	-1201.58545	28.60870	1540.12756	-920.58478	1695.87415	-3102.12769	1973.03113	1023.72754	-3140.56299	2012.64294	1022.01971			 
5	0.040	1450.25439	-938.91052	1658.19189	1553.47180	-889.67181	1664.59338	1493.63464	-1040.54395	1599.27991	1603.88208	-991.57825	1604.63513	1506.43787	-1054.28687	1414.08911	1502.99646	-1097.10840	1123.72375	1500.51685	-910.13446	1346.32227	1496.40747	-872.00604	1189.64795	1581.06274	-1112.54358	1223.21643	1341.80127	-971.90179	1379.62048	1253.10815	-1027.99585	1202.95068	1246.92761	-1069.80408	1062.11511	1214.80383	-1065.36902	951.05927	1226.71863	-1031.27014	814.42584	1199.05676	-1082.55859	830.50446	1189.12463	-1060.23804	747.78876	1653.78833	-969.23303	1372.40857	1760.07092	-1001.28632	1172.98706	1773.20117	-978.76514	1049.98560	1812.25122	-922.03174	945.80634	1807.27820	-810.95599	857.26581	1840.98938	-857.02856	846.17139	1850.48059	-799.69598	785.19690	1402.38391	-920.18292	919.04950	1620.19128	-942.25568	910.81085	1430.66357	-1109.60791	928.56012	1573.90918	-1124.07751	935.06274	1343.79333	-879.69147	598.71643	1364.03320	-861.40753	468.15070	1357.61316	-867.18903	279.34152	1410.70227	-831.11505	64.14088	1466.40759	-869.23578	31.95933	1404.82666	-684.05511	47.26420	1674.78723	-1077.39282	596.90851	1659.82007	-1113.45239	439.68823	1652.40222	-1227.89771	303.13275	1609.12854	-1314.11145	111.59896	1547.96802	-1356.41138	87.50992	1645.50989	-1201.27295	28.84121	1537.94275	-912.37683	1696.40674	-3101.90771	1973.09448	1023.33484	-3140.62500	2012.61914	1022.05322			 
